<svg width="300" height="48" viewBox="0 0 300 48" fill="none" xmlns="http://www.w3.org/2000/svg">
<path fill-rule="evenodd" clip-rule="evenodd" d="M22.4606 2.00013C17.2463 2.00086 12.2023 3.90663 8.2309 7.37654C4.25953 10.8464 1.61984 15.6541 0.784038 20.9396C-0.0517666 26.225 0.970836 31.6435 3.66892 36.2256C6.367 40.8077 10.5646 44.2546 15.5107 45.9497C16.6089 46.1592 17.0795 45.4664 17.0795 44.8703V41.036C10.9768 42.3893 9.69038 38.0072 9.69038 38.0072C9.26123 36.6263 8.35801 35.4525 7.14889 34.7046C5.15649 33.319 7.30577 33.3352 7.30577 33.3352C8.00171 33.4361 8.66598 33.6991 9.24784 34.1039C9.82969 34.5088 10.3138 35.0449 10.6631 35.6712C11.2707 36.7904 12.2864 37.6161 13.4867 37.9665C14.687 38.317 15.9737 38.1635 17.0638 37.54C17.1524 36.3969 17.6432 35.326 18.4444 34.5273C13.5811 33.9474 8.45101 32.0141 8.45101 23.3788C8.41545 21.1361 9.2248 18.9659 10.7101 17.3213C10.0378 15.3787 10.1164 13.2453 10.9298 11.3604C10.9298 11.3604 12.7653 10.7482 16.9697 13.6642C20.5646 12.6572 24.3565 12.6572 27.9515 13.6642C32.1402 10.7482 33.9757 11.3604 33.9757 11.3604C34.7891 13.2453 34.8677 15.3787 34.1954 17.3213C35.6807 18.9659 36.49 21.1361 36.4545 23.3788C36.4545 32.0463 31.3244 33.9474 26.4297 34.5112C26.954 35.057 27.3584 35.7118 27.6154 36.4316C27.8725 37.1514 27.9764 37.9194 27.9201 38.6839V44.8703C27.9201 45.6114 28.3123 46.1753 29.4889 45.9497C34.4415 44.2525 38.6434 40.799 41.3411 36.2084C44.0388 31.6178 45.0557 26.1905 44.2096 20.8997C43.3635 15.6089 40.7097 10.8006 36.7241 7.33719C32.7384 3.87373 27.6817 1.98161 22.4606 2.00013Z" fill="white"/>
<path d="M103.833 3.5C92.2365 3.5 82.8334 12.6792 82.8334 24C82.8334 35.3208 92.2365 44.5 103.833 44.5C115.43 44.5 124.833 35.3208 124.833 24C124.833 12.6792 115.43 3.5 103.833 3.5ZM113.926 18.9528C113.94 19.1679 113.94 19.3921 113.94 19.6117C113.94 26.3291 108.699 34.067 99.1224 34.067C96.1693 34.067 93.4318 33.2296 91.1256 31.7882C91.5474 31.8339 91.9506 31.8522 92.3818 31.8522C94.8193 31.8522 97.0599 31.0469 98.8459 29.6833C96.5584 29.6375 94.6365 28.1732 93.9802 26.1598C94.7818 26.2742 95.5037 26.2742 96.3287 26.0683C95.1508 25.8347 94.0922 25.2102 93.3325 24.301C92.5729 23.3918 92.1591 22.2539 92.1615 21.0806V21.0165C92.8506 21.3963 93.6615 21.6297 94.5099 21.6617C93.7967 21.1977 93.2118 20.569 92.807 19.8315C92.4023 19.094 92.1902 18.2703 92.1896 17.4336C92.1896 16.4864 92.4427 15.6215 92.8974 14.8711C94.2048 16.4422 95.8362 17.7271 97.6856 18.6424C99.5349 19.5577 101.561 20.0828 103.632 20.1837C102.896 16.7289 105.54 13.933 108.718 13.933C110.218 13.933 111.568 14.5462 112.519 15.5346C113.696 15.3195 114.821 14.8894 115.824 14.3128C115.435 15.4888 114.619 16.4818 113.536 17.1087C114.586 16.9989 115.599 16.7152 116.536 16.3171C115.829 17.3329 114.943 18.2344 113.926 18.9528Z" fill="white"/>
<path d="M202.467 6H171.867C170.367 6 169.167 7.2 169.167 8.55V39.3C169.167 40.65 170.367 41.85 171.867 41.85H202.467C203.967 41.85 205.167 40.65 205.167 39.3V8.55C205.167 7.2 203.967 6 202.467 6ZM179.817 36.6H174.567V19.5H179.817V36.6ZM177.267 17.1C175.617 17.1 174.117 15.75 174.117 13.95C174.117 12.15 175.467 10.8 177.267 10.8C178.917 10.8 180.417 12.15 180.417 13.95C180.417 15.75 178.917 17.1 177.267 17.1ZM199.917 36.45H194.667V28.05C194.667 26.1 194.667 23.4 191.817 23.4C188.967 23.4 188.667 25.65 188.667 27.75V36.3H183.417V19.5H188.367V21.75H188.517C189.267 20.4 191.067 18.9 193.617 18.9C199.017 18.9 200.067 22.5 200.067 27.15V36.45H199.917Z" fill="white"/>
<path d="M270.823 22.3605C270.37 22.3237 269.915 22.4192 269.518 22.6348C269.122 22.8503 268.802 23.1757 268.602 23.5683C268.401 23.961 268.328 24.4027 268.394 24.8356C268.459 25.2685 268.659 25.6724 268.967 25.9944C269.275 26.3165 269.678 26.5417 270.121 26.6406C270.565 26.7394 271.03 26.7074 271.454 26.5486C271.879 26.3898 272.243 26.1117 272.501 25.7506C272.758 25.3896 272.895 24.9624 272.895 24.525C272.908 24.2523 272.864 23.9799 272.766 23.7234C272.668 23.467 272.519 23.2315 272.327 23.0305C272.134 22.8295 271.903 22.6668 271.645 22.5519C271.387 22.4369 271.108 22.3719 270.823 22.3605ZM278.238 22.3605C277.784 22.3237 277.329 22.4192 276.932 22.6348C276.536 22.8503 276.216 23.1757 276.016 23.5683C275.815 23.961 275.743 24.4027 275.808 24.8356C275.873 25.2685 276.073 25.6724 276.381 25.9944C276.689 26.3165 277.092 26.5417 277.535 26.6406C277.979 26.7394 278.444 26.7074 278.868 26.5486C279.293 26.3898 279.658 26.1117 279.915 25.7506C280.172 25.3896 280.309 24.9624 280.309 24.525C280.322 24.2523 280.278 23.9799 280.18 23.7234C280.082 23.467 279.933 23.2315 279.741 23.0305C279.548 22.8295 279.317 22.6668 279.059 22.5519C278.801 22.4369 278.522 22.3719 278.238 22.3605Z" fill="white"/>
<path d="M288.109 6H260.891C260.342 6.00118 259.8 6.10603 259.294 6.30856C258.788 6.51109 258.328 6.80734 257.942 7.18037C257.555 7.5534 257.249 7.99591 257.04 8.48263C256.832 8.96935 256.725 9.49073 256.727 10.017V36.381C256.725 36.9073 256.832 37.4287 257.04 37.9154C257.249 38.4021 257.555 38.8446 257.942 39.2176C258.328 39.5907 258.788 39.8869 259.294 40.0894C259.8 40.292 260.342 40.3968 260.891 40.398H283.925L282.848 36.7905L285.448 39.111L287.906 41.295L292.273 45V10.017C292.275 9.49073 292.168 8.96935 291.96 8.48263C291.751 7.99591 291.445 7.5534 291.058 7.18037C290.672 6.80734 290.212 6.51109 289.706 6.30856C289.2 6.10603 288.658 6.00118 288.109 6ZM280.269 31.467C280.269 31.467 279.538 30.6285 278.928 29.8875C280.4 29.5547 281.703 28.7327 282.605 27.567C281.874 28.0339 281.09 28.4199 280.269 28.7175C279.324 29.1047 278.336 29.3861 277.323 29.556C275.584 29.8635 273.8 29.8569 272.063 29.5365C271.043 29.3449 270.043 29.0643 269.077 28.698C268.567 28.5099 268.072 28.2884 267.594 28.035C267.533 27.996 267.472 27.9765 267.411 27.9375C267.38 27.9229 267.353 27.9031 267.33 27.879C267.135 27.7771 266.945 27.6664 266.761 27.5475C267.63 28.6888 268.888 29.5027 270.316 29.8485C269.706 30.5895 268.955 31.467 268.955 31.467C267.748 31.4982 266.552 31.2442 265.472 30.7274C264.391 30.2105 263.46 29.4466 262.759 28.503C262.825 24.5498 263.825 20.6626 265.684 17.1345C267.32 15.9011 269.315 15.1856 271.392 15.087L271.595 15.321C269.641 15.7854 267.817 16.6575 266.253 17.8755C266.253 17.8755 266.7 17.6415 267.452 17.31C268.912 16.6702 270.468 16.2556 272.063 16.0815C272.176 16.0589 272.292 16.0459 272.408 16.0425C273.769 15.8723 275.147 15.8592 276.511 16.0035C278.657 16.2387 280.734 16.8747 282.625 17.8755C281.141 16.7156 279.417 15.8715 277.567 15.399L277.852 15.087C279.929 15.1856 281.924 15.9011 283.559 17.1345C285.418 20.6626 286.418 24.5498 286.484 28.503C285.778 29.4457 284.843 30.2085 283.76 30.7251C282.676 31.2416 281.478 31.4963 280.269 31.467Z" fill="white"/>
</svg>
